<svg viewBox="0 0 500 500" xmlns="http://www.w3.org/2000/svg"><g fill="none" stroke-width="2"><path d="M461.61 123.89q-.22.01-.34.11-.2.15-.07.37 19.27 33.77 27.03 71.81.22 1.03-.42.19a17 17 0 0 0-1.63-1.88q-45.24-43.86-91.62-88.94-.07-.07-.92-1.25-.87-1.21-2.91-.71" stroke="#034e44"/><path d="M390.73 103.59q.16-1.28-.12-2.35-.12-.48-.61-.48H102.7q-.29 0-.29.29l-.31 287.14q0 .56.55.71.92.26 2.18.14" stroke="#02322c"/><path d="M104.83 389.04q.19.55.13 1.53-.02.49.35.83 1.1 1 2.04 1.93 40.97 40.4 91.28 90.98.48.48 1.19.84.7.37-.08.21-54.94-10.73-100.03-43.81-26.06-19.12-47.85-46.13" stroke="#034e44"/><path d="m390.73 103.59.15 284.95a.51.51 0 0 1-.51.51l-285.54-.01" stroke="#011c18"/><path d="M381.28 110.47a.29.29 0 0 0-.29-.29h-268.9a.29.29 0 0 0-.29.29v59.74a.29.29 0 0 0 .29.29h268.9a.29.29 0 0 0 .29-.29z" stroke="#245626"/><path d="M381.28 180.13a.26.26 0 0 0-.26-.26H112.08a.26.26 0 0 0-.26.26v59.62a.26.26 0 0 0 .26.26h268.94a.26.26 0 0 0 .26-.26z" stroke="#76787a"/><path d="M380.96 309.84a.33.33 0 0 0 .33-.33l.01-59.61a.33.33 0 0 0-.33-.33H112.14a.33.33 0 0 0-.33.33v59.6a.33.33 0 0 0 .33.33z" stroke="gray"/><path d="M381.29 319.65a.37.37 0 0 0-.37-.37H112.18a.37.37 0 0 0-.37.37v59.64a.37.37 0 0 0 .37.37h268.74a.37.37 0 0 0 .37-.37z" stroke="#76787a"/><path d="M156.54 139.03a.24.24 0 0 1 .44.12q.03 7.66.05 14.94.01 2.84 2.94 3.91.52.19 1.07.03 3.33-.98 3.34-4.45v-28.04c0-3.89-4.67-5.93-6.78-2.46q-3.93 6.48-7.61 12.67a.36.36 0 0 1-.62 0q-3.8-6.42-7.43-12.4c-1.82-3.01-6.87-2.34-6.93 1.4q-.12 6.99.04 28.93.02 3.31 3.17 4.32.63.2 1.22-.02 2.87-1.08 2.87-3.7 0-7.21.02-15.05 0-.89.49-.14 1.62 2.51 3.16 5.33c1.73 3.19 5.44 3.37 7.31.13q1.64-2.83 3.25-5.52m19.21-10.34h7.28a3.07 3.05 17.1 0 0 2.53-1.33q1.19-1.75.7-3.23-.92-2.82-3.89-2.82h-10.02q-4.33.01-4.33 4.34l.01 28.63a3.76 3.75 90 0 0 3.75 3.76l10.29.01q2.87 0 4.13-2.57.31-.63.17-1.28-.78-3.46-4.32-3.46h-6.36a.29.29 0 0 1-.29-.29l.02-6.74q0-.3.29-.3 3.02-.02 6.38.03c5.7.07 5.72-7.55-.05-7.44q-3.28.06-6.49-.07-.19 0-.19-.19l.07-6.74q0-.31.32-.31m28.57 9.13q-3.54-6.8-6.66-13.37-.73-1.53-1.85-2.41c-2.42-1.88-5.68.04-5.7 3.02q-.1 14.44-.02 28.94.02 3.53 3.51 4.07.45.07.89-.08 2.84-.99 2.9-3.54.16-6.48.03-12.75-.03-1.07.46-.12 3.5 6.81 7.03 14.07c1.9 3.88 7.16 2.88 7.17-1.53q.05-13.36.04-28.55 0-3.47-3.4-4.17-.73-.14-1.37.19-2.61 1.37-2.6 4.16l.02 11.96q0 .96-.45.11m22.99 12.81q-.76.25-1.45-.04-2.74-1.18-2.73-4.15l.01-20.93q.01-3.63-3.59-4.13-.5-.07-.95.09-2.79.97-2.81 3.92-.06 10.68.01 21.23c.07 11.71 15.53 16.04 20.81 5.35q1.27-2.59 1.22-6.85-.12-9.59.01-19.24.04-3.03-2.7-4.35-.72-.34-1.51-.06-3.13 1.14-3.13 4.47v20.26q0 3.37-3.19 4.43" stroke="#a3d5a5"/><path d="M338.23 140.31a16.4 16.4 0 0 0-16.4-16.4 16.4 16.4 0 0 0-16.4 16.4 16.4 16.4 0 0 0 16.4 16.4 16.4 16.4 0 0 0 16.4-16.4m36.83 0a16.41 16.41 0 0 0-16.41-16.41 16.41 16.41 0 0 0-16.41 16.41 16.41 16.41 0 0 0 16.41 16.41 16.41 16.41 0 0 0 16.41-16.41" stroke="#245626"/><path d="M335.44 140.31a13.61 13.61 0 0 0-13.61-13.61 13.61 13.61 0 0 0-13.61 13.61 13.61 13.61 0 0 0 13.61 13.61 13.61 13.61 0 0 0 13.61-13.61" stroke="#7a5c22"/><path d="M372.26 140.31a13.61 13.61 0 0 0-13.61-13.61 13.61 13.61 0 0 0-13.61 13.61 13.61 13.61 0 0 0 13.61 13.61 13.61 13.61 0 0 0 13.61-13.61" stroke="#7f6e21"/><path d="M167.75 190.23a3.37 3.37 0 0 0-3.37-3.37h-39.52a3.37 3.37 0 0 0-3.37 3.37v39.62a3.37 3.37 0 0 0 3.37 3.37h39.52a3.37 3.37 0 0 0 3.37-3.37z" stroke="#76787a"/><path d="M272 192.78a.51.51 0 0 0-.51-.51h-84.44a.51.51 0 0 0-.51.51v9.2a.51.51 0 0 0 .51.51h84.44a.51.51 0 0 0 .51-.51z" stroke="#f0d49c"/><path d="M369.37 217.88a.26.26 0 0 0-.26-.26h-182.3a.26.26 0 0 0-.26.26v9.62a.26.26 0 0 0 .26.26h182.3a.26.26 0 0 0 .26-.26z" stroke="#9bb5f9"/><path d="M165.1 190.1a.59.59 0 0 0-.59-.59h-39.84a.59.59 0 0 0-.59.59v39.84a.59.59 0 0 0 .59.59h39.84a.59.59 0 0 0 .59-.59z" stroke="#245626"/><path d="M167.75 259.88a3.29 3.29 0 0 0-3.29-3.29h-39.68a3.29 3.29 0 0 0-3.29 3.29v39.7a3.29 3.29 0 0 0 3.29 3.29h39.68a3.29 3.29 0 0 0 3.29-3.29z" stroke="gray"/><path d="M271.98 262.58a.56.56 0 0 0-.56-.56H187.1a.56.56 0 0 0-.56.56v9.06a.56.56 0 0 0 .56.56h84.32a.56.56 0 0 0 .56-.56z" stroke="#fadca2"/><path d="M369.36 287.64a.33.33 0 0 0-.33-.33H186.89a.33.33 0 0 0-.33.33v9.52a.33.33 0 0 0 .33.33h182.14a.33.33 0 0 0 .33-.33z" stroke="#a5bdff"/><path d="M165.09 259.82a.58.58 0 0 0-.58-.58h-39.82a.58.58 0 0 0-.58.58v39.86a.58.58 0 0 0 .58.58h39.82a.58.58 0 0 0 .58-.58z" stroke="#245626"/><path d="M167.75 329.56a3.23 3.23 0 0 0-3.23-3.23h-39.8a3.23 3.23 0 0 0-3.23 3.23v39.78a3.23 3.23 0 0 0 3.23 3.23h39.8a3.23 3.23 0 0 0 3.23-3.23z" stroke="#76787a"/><path d="M271.98 332.22a.47.47 0 0 0-.47-.47h-84.5a.47.47 0 0 0-.47.47v9.2a.47.47 0 0 0 .47.47h84.5a.47.47 0 0 0 .47-.47z" stroke="#f0d49c"/><path d="M369.37 357.35a.32.32 0 0 0-.32-.32H186.87a.32.32 0 0 0-.32.32v9.56a.32.32 0 0 0 .32.32h182.18a.32.32 0 0 0 .32-.32z" stroke="#9bb5f9"/><path d="M165.1 329.58a.59.59 0 0 0-.59-.59h-39.84a.59.59 0 0 0-.59.59v39.84a.59.59 0 0 0 .59.59h39.84a.59.59 0 0 0 .59-.59z" stroke="#245626"/></g><path d="M238.88 0h15.36q60.09 2.18 110.9 30.12 41.82 22.99 71.47 58.76 12.59 15.19 25 35.01-.22.01-.34.11-.2.15-.07.37 19.27 33.77 27.03 71.81.22 1.03-.42.19a17 17 0 0 0-1.63-1.88q-45.24-43.86-91.62-88.94-.07-.07-.92-1.25-.87-1.21-2.91-.71.16-1.28-.12-2.35-.12-.48-.61-.48H102.7q-.29 0-.29.29l-.31 287.14q0 .56.55.71.92.26 2.18.14.19.55.13 1.53-.02.49.35.83 1.1 1 2.04 1.93 40.97 40.4 91.28 90.98.48.48 1.19.84.7.37-.08.21-54.94-10.73-100.03-43.81-26.06-19.12-47.85-46.13-8.7-11.11-16.93-24.89Q2.33 315.94 0 252.36v-15.12q3.53-84.12 56.23-147.99 30.03-36.4 72.81-59.66Q179.4 2.21 238.88 0" fill="#036458"/><path d="m390.73 103.59.15 284.95a.51.51 0 0 1-.51.51l-285.54-.01q-1.26.12-2.18-.14-.55-.15-.55-.71l.31-287.14q0-.29.29-.29H390q.49 0 .61.48.28 1.07.12 2.35m-9.45 6.88a.29.29 0 0 0-.29-.29h-268.9a.29.29 0 0 0-.29.29v59.74a.29.29 0 0 0 .29.29h268.9a.29.29 0 0 0 .29-.29zm0 69.66a.26.26 0 0 0-.26-.26H112.08a.26.26 0 0 0-.26.26v59.62a.26.26 0 0 0 .26.26h268.94a.26.26 0 0 0 .26-.26zm-.32 129.71a.33.33 0 0 0 .33-.33l.01-59.61a.33.33 0 0 0-.33-.33H112.14a.33.33 0 0 0-.33.33v59.6a.33.33 0 0 0 .33.33zm.33 9.81a.37.37 0 0 0-.37-.37H112.18a.37.37 0 0 0-.37.37v59.64a.37.37 0 0 0 .37.37h268.74a.37.37 0 0 0 .37-.37z"/><path d="M390.73 103.59q2.04-.5 2.91.71.85 1.18.92 1.25 46.38 45.08 91.62 88.94c.62.61 1.11 1.2 1.63 1.88q.64.84.42-.19-7.76-38.04-27.03-71.81-.13-.22.07-.37.12-.1.34-.11 35.88 56.52 38.39 123.99v14.63q-1.92 53.29-24.57 99.22-21.55 43.72-56.39 74.81Q352.19 496.2 260.89 500h-15.13q-47.1-1.73-89-19.57-60.86-25.92-101.33-79.38-2.53-3.35-3.57-5.63 21.79 27.01 47.85 46.13 45.09 33.08 100.03 43.81.78.16.08-.21-.71-.36-1.19-.84-50.31-50.58-91.28-90.98-.94-.93-2.04-1.93-.37-.34-.35-.83.06-.98-.13-1.53l285.54.01a.51.51 0 0 0 .51-.51z" fill="#023730"/><path d="M381.28 170.21a.29.29 0 0 1-.29.29h-268.9a.29.29 0 0 1-.29-.29v-59.74a.29.29 0 0 1 .29-.29h268.9a.29.29 0 0 1 .29.29zm-224.74-31.18a.24.24 0 0 1 .44.12q.03 7.66.05 14.94.01 2.84 2.94 3.91.52.19 1.07.03 3.33-.98 3.34-4.45v-28.04c0-3.89-4.67-5.93-6.78-2.46q-3.93 6.48-7.61 12.67a.36.36 0 0 1-.62 0q-3.8-6.42-7.43-12.4c-1.82-3.01-6.87-2.34-6.93 1.4q-.12 6.99.04 28.93.02 3.31 3.17 4.32.63.2 1.22-.02 2.87-1.08 2.87-3.7 0-7.21.02-15.05 0-.89.49-.14 1.62 2.51 3.16 5.33c1.73 3.19 5.44 3.37 7.31.13q1.64-2.83 3.25-5.52m19.21-10.34h7.28a3.07 3.05 17.1 0 0 2.53-1.33q1.19-1.75.7-3.23-.92-2.82-3.89-2.82h-10.02q-4.33.01-4.33 4.34l.01 28.63a3.76 3.75 90 0 0 3.75 3.76l10.29.01q2.87 0 4.13-2.57.31-.63.17-1.28-.78-3.46-4.32-3.46h-6.36a.29.29 0 0 1-.29-.29l.02-6.74q0-.3.29-.3 3.02-.02 6.38.03c5.7.07 5.72-7.55-.05-7.44q-3.28.06-6.49-.07-.19 0-.19-.19l.07-6.74q0-.31.32-.31m28.57 9.13q-3.54-6.8-6.66-13.37-.73-1.53-1.85-2.41c-2.42-1.88-5.68.04-5.7 3.02q-.1 14.44-.02 28.94.02 3.53 3.51 4.07.45.07.89-.08 2.84-.99 2.9-3.54.16-6.48.03-12.75-.03-1.07.46-.12 3.5 6.81 7.03 14.07c1.9 3.88 7.16 2.88 7.17-1.53q.05-13.36.04-28.55 0-3.47-3.4-4.17-.73-.14-1.37.19-2.61 1.37-2.6 4.16l.02 11.96q0 .96-.45.11m22.99 12.81q-.76.25-1.45-.04-2.74-1.18-2.73-4.15l.01-20.93q.01-3.63-3.59-4.13-.5-.07-.95.09-2.79.97-2.81 3.92-.06 10.68.01 21.23c.07 11.71 15.53 16.04 20.81 5.35q1.27-2.59 1.22-6.85-.12-9.59.01-19.24.04-3.03-2.7-4.35-.72-.34-1.51-.06-3.13 1.14-3.13 4.47v20.26q0 3.37-3.19 4.43m110.92-10.32a16.4 16.4 0 0 0-16.4-16.4 16.4 16.4 0 0 0-16.4 16.4 16.4 16.4 0 0 0 16.4 16.4 16.4 16.4 0 0 0 16.4-16.4m36.83 0a16.41 16.41 0 0 0-16.41-16.41 16.41 16.41 0 0 0-16.41 16.41 16.41 16.41 0 0 0 16.41 16.41 16.41 16.41 0 0 0 16.41-16.41" fill="#47ab4b"/><path d="M156.54 139.03q-1.61 2.69-3.25 5.52c-1.87 3.24-5.58 3.06-7.31-.13q-1.54-2.82-3.16-5.33-.49-.75-.49.14-.02 7.84-.02 15.05 0 2.62-2.87 3.7-.59.22-1.22.02-3.15-1.01-3.17-4.32-.16-21.94-.04-28.93c.06-3.74 5.11-4.41 6.93-1.4q3.63 5.98 7.43 12.4a.36.36 0 0 0 .62 0q3.68-6.19 7.61-12.67c2.11-3.47 6.78-1.43 6.78 2.46v28.04q-.01 3.47-3.34 4.45-.55.16-1.07-.03-2.93-1.07-2.94-3.91-.02-7.28-.05-14.94a.24.24 0 0 0-.44-.12m19.21-10.34q-.32 0-.32.31l-.07 6.74q0 .19.19.19 3.21.13 6.49.07c5.77-.11 5.75 7.51.05 7.44q-3.36-.05-6.38-.03-.29 0-.29.3l-.02 6.74a.29.29 0 0 0 .29.29h6.36q3.54 0 4.32 3.46.14.65-.17 1.28-1.26 2.57-4.13 2.57l-10.29-.01a3.76 3.75-90 0 1-3.75-3.76l-.01-28.63q0-4.33 4.33-4.34h10.02q2.97 0 3.89 2.82.49 1.48-.7 3.23a3.07 3.05 17.1 0 1-2.53 1.33zm29.02 9.02-.02-11.96q-.01-2.79 2.6-4.16.64-.33 1.37-.19 3.4.7 3.4 4.17.01 15.19-.04 28.55c-.01 4.41-5.27 5.41-7.17 1.53q-3.53-7.26-7.03-14.07-.49-.95-.46.12.13 6.27-.03 12.75-.06 2.55-2.9 3.54-.44.15-.89.08-3.49-.54-3.51-4.07-.08-14.5.02-28.94c.02-2.98 3.28-4.9 5.7-3.02q1.12.88 1.85 2.41 3.12 6.57 6.66 13.37.45.85.45-.11m22.54 12.92q3.19-1.06 3.19-4.43v-20.26q0-3.33 3.13-4.47.79-.28 1.51.06 2.74 1.32 2.7 4.35-.13 9.65-.01 19.24.05 4.26-1.22 6.85c-5.28 10.69-20.74 6.36-20.81-5.35q-.07-10.55-.01-21.23.02-2.95 2.81-3.92.45-.16.95-.09 3.6.5 3.59 4.13l-.01 20.93q-.01 2.97 2.73 4.15.69.29 1.45.04" fill="#fff"/><path d="M338.23 140.31a16.4 16.4 0 0 1-16.4 16.4 16.4 16.4 0 0 1-16.4-16.4 16.4 16.4 0 0 1 16.4-16.4 16.4 16.4 0 0 1 16.4 16.4m-2.79 0a13.61 13.61 0 0 0-13.61-13.61 13.61 13.61 0 0 0-13.61 13.61 13.61 13.61 0 0 0 13.61 13.61 13.61 13.61 0 0 0 13.61-13.61m39.62 0a16.41 16.41 0 0 1-16.41 16.41 16.41 16.41 0 0 1-16.41-16.41 16.41 16.41 0 0 1 16.41-16.41 16.41 16.41 0 0 1 16.41 16.41m-2.8 0a13.61 13.61 0 0 0-13.61-13.61 13.61 13.61 0 0 0-13.61 13.61 13.61 13.61 0 0 0 13.61 13.61 13.61 13.61 0 0 0 13.61-13.61"/><circle cx="321.83" cy="140.31" fill="#f4b844" r="13.61"/><circle cx="358.65" cy="140.31" fill="#fedb41" r="13.61"/><path d="M381.28 239.75a.26.26 0 0 1-.26.26H112.08a.26.26 0 0 1-.26-.26v-59.62a.26.26 0 0 1 .26-.26h268.94a.26.26 0 0 1 .26.26zm-213.53-49.52a3.37 3.37 0 0 0-3.37-3.37h-39.52a3.37 3.37 0 0 0-3.37 3.37v39.62a3.37 3.37 0 0 0 3.37 3.37h39.52a3.37 3.37 0 0 0 3.37-3.37zM272 192.78a.51.51 0 0 0-.51-.51h-84.44a.51.51 0 0 0-.51.51v9.2a.51.51 0 0 0 .51.51h84.44a.51.51 0 0 0 .51-.51zm97.37 25.1a.26.26 0 0 0-.26-.26h-182.3a.26.26 0 0 0-.26.26v9.62a.26.26 0 0 0 .26.26h182.3a.26.26 0 0 0 .26-.26z" fill="#ebf0f3"/><path d="M167.75 229.85a3.37 3.37 0 0 1-3.37 3.37h-39.52a3.37 3.37 0 0 1-3.37-3.37v-39.62a3.37 3.37 0 0 1 3.37-3.37h39.52a3.37 3.37 0 0 1 3.37 3.37zm-2.65-39.75a.59.59 0 0 0-.59-.59h-39.84a.59.59 0 0 0-.59.59v39.84a.59.59 0 0 0 .59.59h39.84a.59.59 0 0 0 .59-.59z"/><rect fill="#47ab4b" height="41.02" rx=".59" width="41.02" x="124.08" y="189.51"/><rect fill="#f4b844" height="10.22" rx=".51" width="85.46" x="186.54" y="192.27"/><rect fill="#4a7aff" height="10.14" rx=".26" width="182.82" x="186.55" y="217.62"/><path d="m380.96 309.84-268.82-.01a.33.33 0 0 1-.33-.33v-59.6a.33.33 0 0 1 .33-.33h268.83a.33.33 0 0 1 .33.33l-.01 59.61a.33.33 0 0 1-.33.33m-213.21-49.96a3.29 3.29 0 0 0-3.29-3.29h-39.68a3.29 3.29 0 0 0-3.29 3.29v39.7a3.29 3.29 0 0 0 3.29 3.29h39.68a3.29 3.29 0 0 0 3.29-3.29zm104.23 2.7a.56.56 0 0 0-.56-.56H187.1a.56.56 0 0 0-.56.56v9.06a.56.56 0 0 0 .56.56h84.32a.56.56 0 0 0 .56-.56zm97.38 25.06a.33.33 0 0 0-.33-.33H186.89a.33.33 0 0 0-.33.33v9.52a.33.33 0 0 0 .33.33h182.14a.33.33 0 0 0 .33-.33z" fill="#fff"/><path d="M167.75 299.58a3.29 3.29 0 0 1-3.29 3.29h-39.68a3.29 3.29 0 0 1-3.29-3.29v-39.7a3.29 3.29 0 0 1 3.29-3.29h39.68a3.29 3.29 0 0 1 3.29 3.29zm-2.66-39.76a.58.58 0 0 0-.58-.58h-39.82a.58.58 0 0 0-.58.58v39.86a.58.58 0 0 0 .58.58h39.82a.58.58 0 0 0 .58-.58z"/><rect fill="#47ab4b" height="41.02" rx=".58" width="40.98" x="124.11" y="259.24"/><rect fill="#f4b844" height="10.18" rx=".56" width="85.44" x="186.54" y="262.02"/><rect fill="#4a7aff" height="10.18" rx=".33" width="182.8" x="186.56" y="287.31"/><path d="M381.29 379.29a.37.37 0 0 1-.37.37H112.18a.37.37 0 0 1-.37-.37v-59.64a.37.37 0 0 1 .37-.37h268.74a.37.37 0 0 1 .37.37zm-213.54-49.73a3.23 3.23 0 0 0-3.23-3.23h-39.8a3.23 3.23 0 0 0-3.23 3.23v39.78a3.23 3.23 0 0 0 3.23 3.23h39.8a3.23 3.23 0 0 0 3.23-3.23zm104.23 2.66a.47.47 0 0 0-.47-.47h-84.5a.47.47 0 0 0-.47.47v9.2a.47.47 0 0 0 .47.47h84.5a.47.47 0 0 0 .47-.47zm97.39 25.13a.32.32 0 0 0-.32-.32H186.87a.32.32 0 0 0-.32.32v9.56a.32.32 0 0 0 .32.32h182.18a.32.32 0 0 0 .32-.32z" fill="#ebf0f3"/><path d="M167.75 369.34a3.23 3.23 0 0 1-3.23 3.23h-39.8a3.23 3.23 0 0 1-3.23-3.23v-39.78a3.23 3.23 0 0 1 3.23-3.23h39.8a3.23 3.23 0 0 1 3.23 3.23zm-2.65-39.76a.59.59 0 0 0-.59-.59h-39.84a.59.59 0 0 0-.59.59v39.84a.59.59 0 0 0 .59.59h39.84a.59.59 0 0 0 .59-.59z"/><rect fill="#47ab4b" height="41.02" rx=".59" width="41.02" x="124.08" y="328.99"/><rect fill="#f4b844" height="10.14" rx=".47" width="85.44" x="186.54" y="331.75"/><rect fill="#4a7aff" height="10.2" rx=".32" width="182.82" x="186.55" y="357.03"/></svg>